# xmcd CD database file
#
# Track frame offsets:
#	150
#	17966
#	35736
#	56469
#	73264
#	88091
#	111778
#	135157
#	156885
#
# Disc length: 2346 seconds
#
# Revision: 0
# Processed by: cddbd v1.5.2PL0 Copyright (c) Steve Scherf et al.
# Submitted via: CDex 1.70beta3
#
DISCID=77092809
DTITLE=George Benson - Goodies
DYEAR=1968
DGENRE=Jazz
TTITLE0=I Remember Wes
TTITLE1=Carnival Joys
TTITLE2=(You Make Me Feel Like) A Natural Woman
TTITLE3=That Lucky Old Sun
TTITLE4=Julie
TTITLE5=Windmills Of Your Mind
TTITLE6=Doobie, Doobie Blues
TTITLE7=Song For My Father
TTITLE8=People Get Ready
EXTD=YEAR: 1968
EXTT0=
EXTT1=
EXTT2=
EXTT3=
EXTT4=
EXTT5=
EXTT6=
EXTT7=
EXTT8=
PLAYORDER=
